<svg id="visual" viewBox="0 0 900 600" width="900" height="600" xmlns="http://www.w3.org/2000/svg" xmlns:xlink="http://www.w3.org/1999/xlink" version="1.1"><path d="M0 555L6 555C12 555 24 555 36 556.7C48 558.3 60 561.7 72 560.7C84 559.7 96 554.3 108 555.8C120 557.3 132 565.7 144 571.7C156 577.7 168 581.3 180 583.5C192 585.7 204 586.3 216 582.8C228 579.3 240 571.7 252 572.5C264 573.3 276 582.7 288 586.8C300 591 312 590 324 586.7C336 583.3 348 577.7 360 574.7C372 571.7 384 571.3 396 574.3C408 577.3 420 583.7 432 580.3C444 577 456 564 468 562.8C480 561.7 492 572.3 504 571.8C516 571.3 528 559.7 540 556C552 552.3 564 556.7 576 561.2C588 565.7 600 570.3 612 572.8C624 575.3 636 575.7 648 573.3C660 571 672 566 684 567.5C696 569 708 577 720 578.2C732 579.3 744 573.7 756 569.3C768 565 780 562 792 563.2C804 564.3 816 569.7 828 572C840 574.3 852 573.7 864 569.8C876 566 888 559 894 555.5L900 552L900 601L894 601C888 601 876 601 864 601C852 601 840 601 828 601C816 601 804 601 792 601C780 601 768 601 756 601C744 601 732 601 720 601C708 601 696 601 684 601C672 601 660 601 648 601C636 601 624 601 612 601C600 601 588 601 576 601C564 601 552 601 540 601C528 601 516 601 504 601C492 601 480 601 468 601C456 601 444 601 432 601C420 601 408 601 396 601C384 601 372 601 360 601C348 601 336 601 324 601C312 601 300 601 288 601C276 601 264 601 252 601C240 601 228 601 216 601C204 601 192 601 180 601C168 601 156 601 144 601C132 601 120 601 108 601C96 601 84 601 72 601C60 601 48 601 36 601C24 601 12 601 6 601L0 601Z" fill="red" stroke-linecap="round" stroke-linejoin="miter"></path></svg>