<?xml version="1.0" standalone="no"?><svg xmlns="http://www.w3.org/2000/svg" viewBox="0 0 1440 320" ><path fill="ffffff" fill-opacity="0.1" d="M0,224L20,224C40,224,80,224,120,202.7C160,181,200,139,240,133.3C280,128,320,160,360,160C400,160,440,128,480,101.3C520,75,560,53,600,48C640,43,680,53,720,85.3C760,117,800,171,840,202.7C880,235,920,245,960,224C1000,203,1040,149,1080,128C1120,107,1160,117,1200,106.7C1240,96,1280,64,1320,53.3C1360,43,1400,53,1420,58.7L1440,64L1440,320L1420,320C1400,320,1360,320,1320,320C1280,320,1240,320,1200,320C1160,320,1120,320,1080,320C1040,320,1000,320,960,320C920,320,880,320,840,320C800,320,760,320,720,320C680,320,640,320,600,320C560,320,520,320,480,320C440,320,400,320,360,320C320,320,280,320,240,320C200,320,160,320,120,320C80,320,40,320,20,320L0,320Z"></path></svg>