<?xml version="1.0" standalone="no"?><svg xmlns="http://www.w3.org/2000/svg" viewBox="0 0 1440 320"><path fill="ffffff" fill-opacity="1" d="M0,256L7.7,261.3C15.5,267,31,277,46,272C61.9,267,77,245,93,202.7C108.4,160,124,96,139,106.7C154.8,117,170,203,186,229.3C201.3,256,217,224,232,218.7C247.7,213,263,235,279,213.3C294.2,192,310,128,325,101.3C340.6,75,356,85,372,80C387.1,75,403,53,418,58.7C433.5,64,449,96,465,96C480,96,495,64,511,42.7C526.5,21,542,11,557,10.7C572.9,11,588,21,604,37.3C619.4,53,635,75,650,117.3C665.8,160,681,224,697,261.3C712.3,299,728,309,743,298.7C758.7,288,774,256,790,208C805.2,160,821,96,836,96C851.6,96,867,160,883,160C898.1,160,914,96,929,112C944.5,128,960,224,975,229.3C991,235,1006,149,1022,96C1037.4,43,1053,21,1068,26.7C1083.9,32,1099,64,1115,117.3C1130.3,171,1146,245,1161,245.3C1176.8,245,1192,171,1208,154.7C1223.2,139,1239,181,1254,192C1269.7,203,1285,181,1301,181.3C1316.1,181,1332,203,1347,213.3C1362.6,224,1378,224,1394,234.7C1409,245,1425,267,1432,277.3L1440,288L1440,320L1432.3,320C1424.5,320,1409,320,1394,320C1378.1,320,1363,320,1347,320C1331.6,320,1316,320,1301,320C1285.2,320,1270,320,1254,320C1238.7,320,1223,320,1208,320C1192.3,320,1177,320,1161,320C1145.8,320,1130,320,1115,320C1099.4,320,1084,320,1068,320C1052.9,320,1037,320,1022,320C1006.5,320,991,320,975,320C960,320,945,320,929,320C913.5,320,898,320,883,320C867.1,320,852,320,836,320C820.6,320,805,320,790,320C774.2,320,759,320,743,320C727.7,320,712,320,697,320C681.3,320,666,320,650,320C634.8,320,619,320,604,320C588.4,320,573,320,557,320C541.9,320,526,320,511,320C495.5,320,480,320,465,320C449,320,434,320,418,320C402.6,320,387,320,372,320C356.1,320,341,320,325,320C309.7,320,294,320,279,320C263.2,320,248,320,232,320C216.8,320,201,320,186,320C170.3,320,155,320,139,320C123.9,320,108,320,93,320C77.4,320,62,320,46,320C31,320,15,320,8,320L0,320Z"></path></svg>