<?xml version="1.0" standalone="no"?><svg xmlns="http://www.w3.org/2000/svg" viewBox="0 0 1440 320"><path fill="ffffff" fill-opacity="1" d="M0,0L7.7,21.3C15.5,43,31,85,46,96C61.9,107,77,85,93,64C108.4,43,124,21,139,21.3C154.8,21,170,43,186,85.3C201.3,128,217,192,232,229.3C247.7,267,263,277,279,266.7C294.2,256,310,224,325,192C340.6,160,356,128,372,128C387.1,128,403,160,418,192C433.5,224,449,256,465,261.3C480,267,495,245,511,224C526.5,203,542,181,557,165.3C572.9,149,588,139,604,154.7C619.4,171,635,213,650,229.3C665.8,245,681,235,697,234.7C712.3,235,728,245,743,234.7C758.7,224,774,192,790,181.3C805.2,171,821,181,836,176C851.6,171,867,149,883,170.7C898.1,192,914,256,929,261.3C944.5,267,960,213,975,170.7C991,128,1006,96,1022,90.7C1037.4,85,1053,107,1068,122.7C1083.9,139,1099,149,1115,181.3C1130.3,213,1146,267,1161,266.7C1176.8,267,1192,213,1208,170.7C1223.2,128,1239,96,1254,117.3C1269.7,139,1285,213,1301,213.3C1316.1,213,1332,139,1347,112C1362.6,85,1378,107,1394,144C1409,181,1425,235,1432,261.3L1440,288L1440,320L1432.3,320C1424.5,320,1409,320,1394,320C1378.1,320,1363,320,1347,320C1331.6,320,1316,320,1301,320C1285.2,320,1270,320,1254,320C1238.7,320,1223,320,1208,320C1192.3,320,1177,320,1161,320C1145.8,320,1130,320,1115,320C1099.4,320,1084,320,1068,320C1052.9,320,1037,320,1022,320C1006.5,320,991,320,975,320C960,320,945,320,929,320C913.5,320,898,320,883,320C867.1,320,852,320,836,320C820.6,320,805,320,790,320C774.2,320,759,320,743,320C727.7,320,712,320,697,320C681.3,320,666,320,650,320C634.8,320,619,320,604,320C588.4,320,573,320,557,320C541.9,320,526,320,511,320C495.5,320,480,320,465,320C449,320,434,320,418,320C402.6,320,387,320,372,320C356.1,320,341,320,325,320C309.7,320,294,320,279,320C263.2,320,248,320,232,320C216.8,320,201,320,186,320C170.3,320,155,320,139,320C123.9,320,108,320,93,320C77.4,320,62,320,46,320C31,320,15,320,8,320L0,320Z"></path></svg>