<?xml version="1.0" standalone="no"?><svg xmlns="http://www.w3.org/2000/svg" viewBox="0 0 1440 320"><path fill="white" fill-opacity="1" d="M0,160L26.7,138.7C53.3,117,107,75,160,69.3C213.3,64,267,96,320,96C373.3,96,427,64,480,48C533.3,32,587,32,640,64C693.3,96,747,160,800,192C853.3,224,907,224,960,186.7C1013.3,149,1067,75,1120,69.3C1173.3,64,1227,128,1280,149.3C1333.3,171,1387,149,1413,138.7L1440,128L1440,320L1413.3,320C1386.7,320,1333,320,1280,320C1226.7,320,1173,320,1120,320C1066.7,320,1013,320,960,320C906.7,320,853,320,800,320C746.7,320,693,320,640,320C586.7,320,533,320,480,320C426.7,320,373,320,320,320C266.7,320,213,320,160,320C106.7,320,53,320,27,320L0,320Z"></path></svg>