<?xml version="1.0" standalone="no"?><svg xmlns="http://www.w3.org/2000/svg" viewBox="0 0 1440 320"><path fill="white" fill-opacity="1" d="M0,160L24,176C48,192,96,224,144,234.7C192,245,240,235,288,224C336,213,384,203,432,181.3C480,160,528,128,576,128C624,128,672,160,720,176C768,192,816,192,864,176C912,160,960,128,1008,138.7C1056,149,1104,203,1152,234.7C1200,267,1248,277,1296,250.7C1344,224,1392,160,1416,128L1440,96L1440,320L1416,320C1392,320,1344,320,1296,320C1248,320,1200,320,1152,320C1104,320,1056,320,1008,320C960,320,912,320,864,320C816,320,768,320,720,320C672,320,624,320,576,320C528,320,480,320,432,320C384,320,336,320,288,320C240,320,192,320,144,320C96,320,48,320,24,320L0,320Z"></path></svg>