<?xml version="1.0" standalone="no"?><svg xmlns="http://www.w3.org/2000/svg" viewBox="0 0 1440 320"><path fill="ffffff" fill-opacity="1" d="M0,96L24,101.3C48,107,96,117,144,122.7C192,128,240,128,288,112C336,96,384,64,432,90.7C480,117,528,203,576,197.3C624,192,672,96,720,69.3C768,43,816,85,864,85.3C912,85,960,43,1008,58.7C1056,75,1104,149,1152,154.7C1200,160,1248,96,1296,112C1344,128,1392,224,1416,272L1440,320L1440,320L1416,320C1392,320,1344,320,1296,320C1248,320,1200,320,1152,320C1104,320,1056,320,1008,320C960,320,912,320,864,320C816,320,768,320,720,320C672,320,624,320,576,320C528,320,480,320,432,320C384,320,336,320,288,320C240,320,192,320,144,320C96,320,48,320,24,320L0,320Z"></path></svg>