<?xml version="1.0" standalone="no"?><svg xmlns="http://www.w3.org/2000/svg" viewBox="0 0 1440 320"><path fill="ffffff" fill-opacity="0.3" d="M0,32L20,69.3C40,107,80,181,120,186.7C160,192,200,128,240,138.7C280,149,320,235,360,234.7C400,235,440,149,480,106.7C520,64,560,64,600,64C640,64,680,64,720,58.7C760,53,800,43,840,32C880,21,920,11,960,21.3C1000,32,1040,64,1080,101.3C1120,139,1160,181,1200,208C1240,235,1280,245,1320,213.3C1360,181,1400,107,1420,69.3L1440,32L1440,320L1420,320C1400,320,1360,320,1320,320C1280,320,1240,320,1200,320C1160,320,1120,320,1080,320C1040,320,1000,320,960,320C920,320,880,320,840,320C800,320,760,320,720,320C680,320,640,320,600,320C560,320,520,320,480,320C440,320,400,320,360,320C320,320,280,320,240,320C200,320,160,320,120,320C80,320,40,320,20,320L0,320Z"></path></svg>