<?xml version="1.0" encoding="UTF-8"?><svg id="Calque_2" xmlns="http://www.w3.org/2000/svg" viewBox="0 0 900 49"><defs><style>.cls-1{fill:#fff;}</style></defs><g id="visual"><path class="cls-1" d="M0,46H6c6,0,18,0,30-1.7,12-1.6,24-5,36-4s24,6.4,36,4.9,24-9.9,36-15.9,24-9.6,36-11.8,24-2.8,36,.7,24,11.1,36,10.3,24-10.2,36-14.3c12-4.2,24-3.2,36,.1,12,3.4,24,9,36,12s24,3.4,36,.4,24-9.4,36-6c12,3.3,24,16.3,36,17.5,12,1.1,24-9.5,36-9s24,12.1,36,15.8,24-.7,36-5.2,24-9.1,36-11.6,24-2.9,36-.5c12,2.3,24,7.3,36,5.8s24-9.5,36-10.7c12-1.1,24,4.5,36,8.9,12,4.3,24,7.3,36,6.1,12-1.1,24-6.5,36-8.8s24-1.7,36,2.2c12,3.8,24,10.8,30,14.3l6,3.5V0H0V46Z"/></g></svg>