<?xml version="1.0" standalone="no"?><svg xmlns="http://www.w3.org/2000/svg" viewBox="0 0 1440 320"><path fill="ffffff" fill-opacity="0.2" d="M0,320L26.7,293.3C53.3,267,107,213,160,165.3C213.3,117,267,75,320,58.7C373.3,43,427,53,480,96C533.3,139,587,213,640,218.7C693.3,224,747,160,800,144C853.3,128,907,160,960,149.3C1013.3,139,1067,85,1120,58.7C1173.3,32,1227,32,1280,64C1333.3,96,1387,160,1413,192L1440,224L1440,320L1413.3,320C1386.7,320,1333,320,1280,320C1226.7,320,1173,320,1120,320C1066.7,320,1013,320,960,320C906.7,320,853,320,800,320C746.7,320,693,320,640,320C586.7,320,533,320,480,320C426.7,320,373,320,320,320C266.7,320,213,320,160,320C106.7,320,53,320,27,320L0,320Z"></path></svg>