<?xml version="1.0" encoding="UTF-8"?><svg id="Calque_2" xmlns="http://www.w3.org/2000/svg" viewBox="0 0 196.58 152.7"><defs><style>.cls-1{fill:#90c99c;}</style></defs><g id="Calque_1-2"><g><path class="cls-1" d="M98.76,46.44l-17.88,30.96,17.88,30.96,17.88-30.96-17.88-30.96Zm0,50.3l-11.16-19.33,11.16-19.33,11.16,19.33-11.16,19.33Z"/><polygon class="cls-1" points="134.67 86.62 134.65 86.59 132.24 90.78 132.24 90.77 134.67 86.62"/><path class="cls-1" d="M196.58,28.86h-35.75l-17.87,30.96h-.01l-17.8,30.96-17.88,30.96,17.88,30.96m.07-11.25l-11.08-19.19,.3-.52,9.15-15.96,5.11-8.85,3.55-6.15,2.42-4.19,.02,.03,7.49-12.98h.01l4.37-7.57,3.61-6.25h0l3.1-5.36,11.08-19.19h22.16"/><path class="cls-1" d="M0,123.85H35.75L89.38,30.96,71.51,0m.03,11.76l11.08,19.19c-4.88,8.53-12.97,22.59-17.82,30.97l.09-.15c-10.2,17.52-22.23,38.48-32.47,56.2H10.26L71.54,11.76Z"/></g></g></svg>