<?xml version="1.0" encoding="UTF-8"?><svg id="Calque_2" xmlns="http://www.w3.org/2000/svg" viewBox="0 0 196.58 152.7"><defs><style>.cls-1{fill:none;}.cls-2{fill:#3b7bbe;}</style></defs><g id="Calque_1-2"><g><path class="cls-2" d="M98.76,46.44l-17.88,30.96,17.88,30.96,17.88-30.96-17.88-30.96Zm0,50.3l-11.16-19.33,11.16-19.33,11.16,19.33-11.16,19.33Z"/><polygon class="cls-2" points="134.67 86.62 134.65 86.59 132.24 90.78 132.24 90.77 134.67 86.62"/><path class="cls-2" d="M196.58,28.86h-35.75l-17.87,30.96h-.01l-17.8,30.96-17.88,30.96,17.88,30.96m.07-11.25l-11.08-19.19,.3-.52,9.15-15.96,5.11-8.85,3.55-6.15,2.42-4.19,.02,.03,7.49-12.98h.01l4.37-7.57,3.61-6.25h0l3.1-5.36,11.08-19.19h22.16"/><g><polyline class="cls-1" points="10.26 117.97 32.36 117.97 32.42 117.97 32.42 117.96 43.5 98.77 46.89 92.89 50.26 87.05 54.58 79.57 54.58 79.57 62.07 66.59 64.89 61.77 64.8 61.93 68.15 56.12 73.11 47.54 82.62 30.96 82.62 30.96 71.54 11.76"/><path class="cls-2" d="M0,123.85H35.75l17.88-30.96,17.88-30.96,17.88-30.96L71.51,0m.03,11.76l11.08,19.19h0l-9.51,16.58-4.95,8.58-3.35,5.81,.09-.15-2.82,4.82-7.49,12.97h0l-4.32,7.49-3.37,5.83-3.39,5.88-11.08,19.19H10.26"/></g></g></g></svg>